<svg width="59" height="49" viewBox="0 0 59 49" fill="none" xmlns="http://www.w3.org/2000/svg">
<path fill-rule="evenodd" clip-rule="evenodd" d="M29.5681 5.35632C16.04 5.35632 5.09173 16.2707 5.09173 29.7116V43.716H8.38199C9.69896 43.716 10.7666 44.7836 10.7666 46.1005C10.7666 47.4175 9.69896 48.4851 8.38199 48.4851H4.22044C2.0677 48.4851 0.322571 46.74 0.322571 44.5872V29.7116C0.322571 13.6165 13.4264 0.587158 29.5681 0.587158C45.7097 0.587158 58.8136 13.6165 58.8136 29.7116V44.5872C58.8136 46.74 57.0684 48.4851 54.9157 48.4851H50.7541C49.4372 48.4851 48.3696 47.4175 48.3696 46.1005C48.3696 44.7836 49.4372 43.716 50.7541 43.716H54.0444V29.7116C54.0444 16.2707 43.0961 5.35632 29.5681 5.35632Z" fill="#003BE5"/>
</svg>
