<svg width="103" height="39" viewBox="0 0 103 39" fill="none" xmlns="http://www.w3.org/2000/svg">
<path d="M8.1838 30.7114C7.50496 30.7114 6.81983 30.6612 6.12842 30.5606C5.44958 30.46 4.82102 30.2715 4.24275 29.9949C3.66448 29.7058 3.19935 29.2909 2.84736 28.7503C2.49537 28.2098 2.31937 27.4932 2.31937 26.6007C2.31937 26.1481 2.36337 25.6453 2.45137 25.0922C2.55194 24.539 2.67765 23.9168 2.8285 23.2253L4.63874 14.7964H0L0.961691 10.2708H2.33823C3.07992 10.2708 3.68334 10.2331 4.14847 10.1577C4.6136 10.0697 4.97816 9.89367 5.24216 9.62968C5.51872 9.35311 5.745 8.93198 5.921 8.36628C6.10956 7.80058 6.29813 7.03374 6.4867 6.06576L6.97697 3.67097H12.8414L11.4649 10.2708H17.2727L16.311 14.7964H10.5032L8.95692 21.9997C8.81864 22.7162 8.7055 23.2882 8.6175 23.7156C8.54208 24.143 8.50436 24.5139 8.50436 24.8282C8.50436 25.2556 8.59865 25.595 8.78721 25.8464C8.98835 26.0853 9.34663 26.2047 9.86204 26.2047C10.2769 26.2047 10.6917 26.167 11.1066 26.0916C11.5214 26.0161 11.8294 25.9407 12.0306 25.8653L11.0877 30.2589C10.7986 30.372 10.3963 30.4726 9.8809 30.5606C9.37806 30.6612 8.81236 30.7114 8.1838 30.7114Z" fill="#00D5E2"/>
<path d="M16.5182 30.2966L20.7609 10.2708H26.6253L25.1545 17.1723L24.042 16.4181C24.3814 15.4752 24.8214 14.6078 25.3619 13.8159C25.9025 13.0239 26.5311 12.3388 27.2476 11.7605C27.9767 11.1696 28.775 10.7108 29.6424 10.3839C30.5224 10.0571 31.4715 9.89367 32.4898 9.89367C33.3069 9.89367 33.9229 9.95653 34.3377 10.0822C34.7651 10.1954 35.0291 10.2834 35.1297 10.3462L33.0366 15.5884C32.9486 15.5255 32.7223 15.425 32.3578 15.2867C31.9932 15.1484 31.5029 15.0793 30.8869 15.0793C29.8813 15.0793 29.0013 15.249 28.247 15.5884C27.5053 15.9278 26.8705 16.3741 26.3425 16.9272C25.8271 17.4803 25.4059 18.0963 25.0791 18.7752C24.7522 19.454 24.5197 20.1391 24.3814 20.8305L22.3637 30.2966H16.5182Z" fill="#00D5E2"/>
<path d="M33.8271 38.9518C33.186 38.9518 32.5951 38.933 32.0546 38.8952C31.514 38.8575 31.1935 38.8135 31.0929 38.7632L32.0734 34.2942C32.2243 34.3822 32.4946 34.4451 32.8843 34.4828C33.2614 34.5331 33.6825 34.5582 34.1477 34.5582C34.7637 34.5582 35.3356 34.4262 35.8636 34.1622C36.4042 33.9108 36.8882 33.5588 37.3156 33.1062C37.743 32.6663 38.1202 32.1571 38.447 31.5789L38.9938 30.5606L36.3916 10.2708H42.3315L43.2743 26.695H42.5389L50.1947 10.2708H56.3797L45.0468 31.296C44.192 32.88 43.2869 34.2439 42.3315 35.3879C41.3886 36.5444 40.2447 37.4244 38.8996 38.0278C37.5545 38.6438 35.8636 38.9518 33.8271 38.9518Z" fill="#00D5E2"/>
<path d="M67.004 30.7303C65.6463 30.7303 64.4269 30.4097 63.3458 29.7686C62.2646 29.1275 61.4098 28.2475 60.7813 27.1287C60.1653 26.0098 59.8573 24.7276 59.8573 23.2819C59.8573 22.7414 59.8824 22.2762 59.9327 21.8865C59.983 21.4968 60.0521 21.1637 60.1401 20.8871L62.5915 20.8305C62.5538 21.0065 62.5224 21.214 62.4972 21.4528C62.4721 21.6791 62.4595 21.8802 62.4595 22.0562C62.4595 22.7854 62.6292 23.4265 62.9686 23.9796C63.3206 24.5202 63.7795 24.9413 64.3452 25.243C64.9234 25.5321 65.5646 25.6767 66.2686 25.6767C67.2491 25.6767 68.1102 25.4944 68.8519 25.1299C69.6062 24.7653 70.2347 24.2625 70.7376 23.6213C71.253 22.9802 71.6364 22.2385 71.8878 21.3962C72.1518 20.554 72.2838 19.6551 72.2838 18.6997C72.2838 17.3546 71.9507 16.3678 71.2844 15.7392C70.6182 15.0981 69.713 14.7776 68.5691 14.7776C67.7897 14.7776 66.9977 14.9661 66.1931 15.3433C65.4011 15.7078 64.7035 16.2295 64.1 16.9084C63.5092 17.5872 63.1132 18.398 62.9121 19.3409L60.3664 19.19C60.7435 17.3798 61.4538 15.7832 62.4972 14.4004C63.5532 13.005 64.804 11.9113 66.2497 11.1194C67.6954 10.3148 69.2102 9.91253 70.7942 9.91253C73.0067 9.91253 74.8106 10.6354 76.206 12.081C77.614 13.5267 78.318 15.5758 78.318 18.2283C78.318 19.9883 78.0477 21.6288 77.5071 23.1499C76.9666 24.6585 76.1997 25.9847 75.2066 27.1287C74.2135 28.2601 73.0192 29.1463 71.6238 29.7875C70.241 30.416 68.7011 30.7303 67.004 30.7303ZM54.7283 30.2966L61.0075 0.823608H66.872L60.5927 30.2966H54.7283Z" fill="#00D5E2"/>
<path d="M83.7519 22.0374L84.5439 18.1718H97.819L97.159 19.1523C97.2219 18.8883 97.2722 18.6432 97.3099 18.4169C97.3476 18.178 97.3665 17.9203 97.3665 17.6438C97.3665 17.0404 97.2282 16.4872 96.9516 15.9844C96.675 15.469 96.2351 15.0541 95.6317 14.7398C95.0408 14.4256 94.2614 14.2684 93.2934 14.2684C92.1997 14.2684 91.2255 14.4696 90.3706 14.8718C89.5158 15.2741 88.793 15.8398 88.2021 16.5689C87.6238 17.2855 87.1839 18.1278 86.8821 19.0957C86.5804 20.0511 86.4296 21.0883 86.4296 22.2071C86.4296 23.0619 86.5742 23.7973 86.8633 24.4133C87.1524 25.0293 87.6176 25.5007 88.2587 25.8276C88.9124 26.1544 89.7609 26.3178 90.8043 26.3178C91.6089 26.3178 92.3129 26.2487 92.9163 26.1104C93.5197 25.9596 94.0288 25.771 94.4437 25.5447C94.8585 25.3184 95.1854 25.067 95.4242 24.7904C95.6756 24.5139 95.8454 24.2436 95.9334 23.9796H101.722C101.496 24.8219 101.075 25.6516 100.459 26.4687C99.843 27.2732 99.0447 28.0024 98.0642 28.6561C97.0836 29.2972 95.9333 29.8063 94.6134 30.1835C93.2934 30.5606 91.8037 30.7492 90.1443 30.7492C88.1707 30.7492 86.4862 30.3846 85.0908 29.6555C83.7079 28.9263 82.652 27.9207 81.9228 26.6384C81.1937 25.3436 80.8292 23.8539 80.8292 22.1694C80.8292 20.3968 81.156 18.7626 81.8097 17.2666C82.476 15.7707 83.3937 14.4696 84.5628 13.3633C85.7445 12.257 87.1147 11.4022 88.6735 10.7988C90.2323 10.1954 91.9106 9.89367 93.7083 9.89367C95.6442 9.89367 97.3036 10.2457 98.6864 10.9496C100.069 11.6411 101.125 12.609 101.854 13.8536C102.596 15.0981 102.967 16.5564 102.967 18.2283C102.967 18.8066 102.91 19.4603 102.797 20.1894C102.684 20.9185 102.539 21.5345 102.363 22.0374H83.7519Z" fill="#00D5E2"/>
</svg>
