<svg width="105" height="28" viewBox="0 0 105 28" fill="none" xmlns="http://www.w3.org/2000/svg">
<path d="M6.88291 27.2065C6.35492 27.2065 5.83951 27.1562 5.33666 27.0557C4.83382 26.9677 4.37497 26.7979 3.96012 26.5465C3.55785 26.2951 3.23728 25.9431 2.99843 25.4905C2.75958 25.038 2.64016 24.4597 2.64016 23.7557C2.64016 23.3283 2.69044 22.8443 2.79101 22.3038C2.89158 21.7632 3.01729 21.1472 3.16814 20.4558L5.46866 9.70751H0.584778L1.18819 6.879H4.46925C4.87153 6.879 5.18581 6.85386 5.41209 6.80358C5.63837 6.75329 5.81436 6.65901 5.94007 6.52073C6.06579 6.36988 6.17264 6.14359 6.26064 5.84189C6.34864 5.54018 6.44292 5.14419 6.54349 4.65392L7.46747 0.241455H10.692L9.29656 6.879H15.557L14.9536 9.70751H8.69315L6.61891 19.4187C6.45549 20.2232 6.31721 20.9021 6.20407 21.4552C6.1035 22.0083 6.05321 22.4609 6.05321 22.8129C6.05321 23.3157 6.16007 23.7055 6.37378 23.982C6.60006 24.246 6.98348 24.378 7.52404 24.378C7.8886 24.378 8.27202 24.3466 8.67429 24.2837C9.07657 24.2209 9.3657 24.158 9.5417 24.0952L8.95714 26.8859C8.71829 26.9614 8.42916 27.0305 8.08974 27.0934C7.76289 27.1688 7.36061 27.2065 6.88291 27.2065Z" fill="#003BE5"/>
<path d="M22.9282 27.2631C21.4196 27.2631 20.2191 26.9928 19.3265 26.4522C18.434 25.8991 17.7929 25.1951 17.4032 24.3403C17.0135 23.4729 16.8186 22.5678 16.8186 21.6249C16.8186 20.9084 16.8815 20.173 17.0072 19.4187C17.1455 18.6519 17.3529 17.621 17.6294 16.3262L19.6471 6.879H22.8716L20.9482 15.9114C20.6842 17.1308 20.4831 18.1302 20.3448 18.9096C20.2065 19.6764 20.1374 20.3615 20.1374 20.9649C20.1374 21.9329 20.4391 22.7312 21.0425 23.3597C21.6459 23.9883 22.6202 24.3026 23.9653 24.3026C25.1218 24.3026 26.2092 23.9569 27.2275 23.2655C28.2583 22.5615 29.132 21.6878 29.8486 20.6444C30.5651 19.5884 31.0303 18.5387 31.244 17.4953L33.1485 18.2684C32.9096 19.3747 32.4822 20.4621 31.8662 21.5306C31.2628 22.5866 30.5023 23.5483 29.5846 24.4157C28.6795 25.2831 27.6612 25.9745 26.5298 26.49C25.3984 27.0054 24.1979 27.2631 22.9282 27.2631ZM29.2263 26.9048L33.4879 6.879H36.6935L32.4319 26.9048H29.2263Z" fill="#003BE5"/>
<path d="M52.2194 26.9048L54.3125 17.3067C54.5513 16.2256 54.7273 15.3582 54.8405 14.7045C54.9662 14.0383 55.029 13.4474 55.029 12.932C55.029 11.9137 54.6707 11.1092 53.9542 10.5183C53.2502 9.9275 52.1817 9.63208 50.7485 9.63208C49.68 9.63208 48.6303 9.90864 47.5995 10.4618C46.5687 11.0023 45.6824 11.7377 44.9407 12.668C44.199 13.5857 43.7024 14.6165 43.451 15.7605L41.6031 15.0628C41.8545 13.8811 42.3196 12.7811 42.9985 11.7629C43.6899 10.7321 44.5196 9.83322 45.4875 9.06638C46.4681 8.28697 47.5241 7.67727 48.6555 7.23728C49.7869 6.79729 50.9245 6.5773 52.0685 6.5773C54.017 6.5773 55.5633 7.04243 56.7073 7.97269C57.8512 8.89038 58.4232 10.1852 58.4232 11.8572C58.4232 12.5486 58.3415 13.3468 58.1781 14.252C58.0147 15.1445 57.7821 16.2633 57.4804 17.6085L55.425 26.9048H52.2194ZM37.8883 26.9048L42.1499 6.879H45.3555L41.0939 26.9048H37.8883Z" fill="#003BE5"/>
<path d="M63.8843 18.1742L64.4877 15.3079H79.969L79.4033 16.2508C79.4788 15.9868 79.5353 15.7165 79.573 15.4399C79.6233 15.1634 79.6485 14.7737 79.6485 14.2708C79.6485 13.3657 79.4536 12.5549 79.0639 11.8383C78.6742 11.1092 78.0771 10.5372 77.2725 10.1224C76.4805 9.69494 75.4623 9.48123 74.2177 9.48123C72.8601 9.48123 71.6344 9.72008 70.5407 10.1978C69.447 10.6629 68.5042 11.3229 67.7122 12.1777C66.9328 13.0326 66.3294 14.032 65.9019 15.1759C65.4871 16.3199 65.2797 17.5645 65.2797 18.9096C65.2797 20.041 65.4871 21.0152 65.9019 21.8324C66.3294 22.6495 66.9705 23.278 67.8253 23.718C68.6927 24.1454 69.7801 24.3591 71.0875 24.3591C72.1938 24.3591 73.1555 24.2523 73.9726 24.0386C74.8023 23.8123 75.5 23.5169 76.0657 23.1523C76.644 22.7752 77.1028 22.3666 77.4422 21.9266C77.7942 21.4866 78.0394 21.0467 78.1777 20.6067H81.421C81.245 21.4112 80.8679 22.2095 80.2896 23.0015C79.7113 23.7934 78.9571 24.5163 78.0268 25.17C77.0965 25.8111 76.0091 26.3265 74.7646 26.7162C73.5201 27.1059 72.1372 27.3008 70.6161 27.3008C68.8436 27.3008 67.3288 26.9551 66.0717 26.2637C64.8145 25.5597 63.8529 24.5854 63.1866 23.3409C62.5203 22.0838 62.1872 20.6255 62.1872 18.9661C62.1872 17.2062 62.5015 15.5782 63.13 14.0823C63.7711 12.5737 64.6574 11.26 65.7888 10.1412C66.9202 9.00981 68.2339 8.13612 69.7299 7.52013C71.2258 6.89158 72.8286 6.5773 74.5383 6.5773C76.2857 6.5773 77.7691 6.92929 78.9885 7.63327C80.2079 8.33726 81.1381 9.29266 81.7793 10.4995C82.4204 11.7063 82.741 13.0703 82.741 14.5914C82.741 15.1319 82.6844 15.7605 82.5713 16.4771C82.4581 17.181 82.3324 17.7467 82.1941 18.1742H63.8843Z" fill="#003BE5"/>
<path d="M93.2238 27.2819C92.1427 27.2819 91.1433 27.1688 90.2256 26.9425C89.3079 26.7162 88.5096 26.3957 87.8308 25.9808C87.1519 25.5534 86.624 25.0443 86.2468 24.4534C85.8697 23.8626 85.6811 23.2026 85.6811 22.4735C85.6811 22.2221 85.7063 21.9329 85.7566 21.6061C85.8194 21.2667 85.876 21.0089 85.9263 20.8329H89.1508C89.113 20.9461 89.0753 21.1095 89.0376 21.3232C89.0125 21.5369 88.9999 21.7066 88.9999 21.8324C88.9999 22.662 89.4085 23.2969 90.2256 23.7369C91.0427 24.1643 92.193 24.378 93.6764 24.378C94.6192 24.378 95.5369 24.2837 96.4294 24.0952C97.3346 23.894 98.0825 23.5609 98.6734 23.0958C99.2642 22.6306 99.5596 21.9832 99.5596 21.1535C99.5596 20.2861 99.1762 19.645 98.4094 19.2301C97.6551 18.8153 96.4106 18.4696 94.6758 18.193C93.4438 17.9919 92.3187 17.6965 91.3004 17.3067C90.2947 16.9045 89.4902 16.3576 88.8868 15.6662C88.2959 14.9622 88.0005 14.0697 88.0005 12.9886C88.0005 11.8949 88.2582 10.9458 88.7736 10.1412C89.289 9.33666 89.9804 8.67039 90.8479 8.1424C91.7278 7.61442 92.7084 7.22471 93.7895 6.97329C94.8832 6.7093 96.002 6.5773 97.146 6.5773C98.4534 6.5773 99.6539 6.77844 100.748 7.18071C101.841 7.58299 102.715 8.15497 103.369 8.89667C104.022 9.62579 104.349 10.4869 104.349 11.48C104.349 11.832 104.33 12.1149 104.293 12.3286C104.268 12.5423 104.224 12.7497 104.161 12.9509H100.955C101.005 12.7749 101.037 12.6303 101.049 12.5172C101.062 12.3914 101.068 12.2469 101.068 12.0834C101.068 11.48 100.867 10.9898 100.465 10.6126C100.075 10.2229 99.5596 9.93379 98.9185 9.74522C98.2774 9.55665 97.5734 9.46237 96.8066 9.46237C95.9014 9.46237 95.0215 9.56923 94.1666 9.78294C93.3118 9.98407 92.6078 10.3109 92.0547 10.7635C91.5016 11.2035 91.225 11.7755 91.225 12.4794C91.225 13.372 91.6461 14.0257 92.4884 14.4405C93.3307 14.8428 94.5123 15.1948 96.0334 15.4965C96.9637 15.6851 97.8374 15.9051 98.6545 16.1565C99.4716 16.4079 100.188 16.7285 100.804 17.1182C101.42 17.5079 101.898 17.9919 102.237 18.5701C102.589 19.1358 102.765 19.8335 102.765 20.6632C102.765 21.8575 102.495 22.8758 101.954 23.718C101.414 24.5603 100.685 25.2454 99.7671 25.7734C98.8619 26.2888 97.8437 26.6659 96.7123 26.9048C95.5809 27.1562 94.4181 27.2819 93.2238 27.2819Z" fill="#003BE5"/>
</svg>
